<svg version="1.0" xmlns="http://www.w3.org/2000/svg"
 width="167.000000pt" height="167.000000pt" viewBox="0 0 167.000000 167.000000"
 preserveAspectRatio="xMidYMid meet">

<g transform="translate(0.000000,167.000000) scale(0.100000,-0.100000)"
fill="#000000" stroke="none">
<path d="M674 665 c-15 -23 -15 -27 0 -50 10 -15 26 -25 41 -25 15 0 31 10 41
25 15 23 15 27 0 50 -10 15 -26 25 -41 25 -15 0 -31 -10 -41 -25z"/>
<path d="M543 673 c-21 -8 -16 -61 7 -73 38 -21 80 22 60 61 -10 18 -40 24
-67 12z"/>
<path d="M950 579 c-60 -13 -110 -95 -110 -180 0 -65 17 -63 22 3 9 106 46
157 123 170 11 2 16 6 10 9 -5 3 -26 2 -45 -2z"/>
<path d="M562 480 c4 -32 55 -42 75 -14 19 26 16 40 -5 21 -24 -22 -48 -22
-62 1 -9 15 -10 14 -8 -8z"/>
<path d="M945 460 c-9 -18 -14 -34 -11 -37 2 -3 12 9 21 27 9 18 14 34 11 37
-2 3 -12 -9 -21 -27z"/>
</g>
</svg>
